<svg width="34" height="25" viewBox="0 0 34 25" fill="none" xmlns="http://www.w3.org/2000/svg">
<rect x="0.5" y="0.5" width="32.3333" height="24" rx="4.5" fill="#FDD6AC" stroke="#A67B4D"/>
<path d="M28 14.662H22.7519C22.8133 15.9132 23.1509 16.9021 23.7647 17.6287C24.2353 18.187 24.8014 18.4662 25.4629 18.4662C25.8721 18.4662 26.2438 18.3552 26.578 18.1332C26.9122 17.9045 27.2702 17.4975 27.6522 16.9122L28 17.1342C27.4817 18.1769 26.9088 18.9169 26.2813 19.3542C25.6539 19.7847 24.9275 20 24.1023 20C22.6837 20 21.6095 19.4618 20.8798 18.3855C20.2933 17.5177 20 16.4413 20 15.1564C20 13.5822 20.4297 12.331 21.289 11.4026C22.1552 10.4675 23.1679 10 24.3274 10C25.2958 10 26.1347 10.3935 26.844 11.1806C27.5601 11.961 27.9454 13.1214 28 14.662ZM25.4834 13.9859C25.4834 12.9028 25.422 12.1594 25.2992 11.7558C25.1833 11.3522 24.9991 11.0461 24.7468 10.8375C24.6036 10.7164 24.4126 10.6559 24.1739 10.6559C23.8193 10.6559 23.5294 10.8274 23.3043 11.1705C22.902 11.7693 22.7008 12.59 22.7008 13.6327V13.9859H25.4834Z" fill="#A67B4D"/>
<path d="M10.2022 13.0752V16.7183C10.2022 17.4213 10.2467 17.8655 10.3358 18.0509C10.4318 18.2298 10.5963 18.3736 10.8293 18.4823C11.0624 18.591 11.4976 18.6453 12.135 18.6453V19H5V18.6453C5.64428 18.6453 6.07951 18.591 6.30569 18.4823C6.53873 18.3673 6.69979 18.2203 6.7889 18.0413C6.88485 17.8623 6.93283 17.4213 6.93283 16.7183V8.28171C6.93283 7.57866 6.88485 7.13766 6.7889 6.9587C6.69979 6.77335 6.53873 6.62635 6.30569 6.5177C6.07265 6.40905 5.63742 6.35472 5 6.35472V6H11.477C13.1631 6 14.3968 6.10865 15.1782 6.32596C15.9596 6.54326 16.597 6.94592 17.0905 7.53392C17.584 8.11554 17.8307 8.79941 17.8307 9.58555C17.8307 10.5442 17.4606 11.3368 16.7204 11.9631C16.2474 12.3594 15.586 12.6566 14.7361 12.8547L18.0877 17.2552C18.5264 17.824 18.8382 18.1787 19.0233 18.3193C19.3043 18.5175 19.6299 18.6261 20 18.6453V19H15.61L11.1172 13.0752H10.2022ZM10.2022 6.69985V12.3945H10.7882C11.7409 12.3945 12.4537 12.3147 12.9267 12.1549C13.3996 11.9887 13.7697 11.6947 14.037 11.2729C14.3112 10.8446 14.4483 10.2886 14.4483 9.60472C14.4483 8.61406 14.1981 7.88225 13.6977 7.40929C13.2042 6.93633 12.4058 6.69985 11.3023 6.69985H10.2022Z" fill="#A67B4D"/>
</svg>
